# xmcd
#
# Track frame offsets: 
#        150
#        25009
#        55585
#        78645
#        109849
#        149059
#        187818
#        219562
#        247463
#
# Disc length: 3708 seconds
#
# Revision: 1
# Processed by: cddbd v1.5.2PL0 Copyright (c) Steve Scherf et al.
# Submitted via: ExactAudioCopy v1.0b3
#
DISCID=820e7a09
DTITLE=Kasper Villaume Trio - 117 Ditmas Avenue
DYEAR=2005
DGENRE=Jazz
TTITLE0=Please Enter-Tain
TTITLE1=Dansevise
TTITLE2=Seven Steps to Heaven
TTITLE3=Autumn Nocturne
TTITLE4=Conception
TTITLE5=Toys
TTITLE6=Caravan
TTITLE7=I Fall in Love to Easily
TTITLE8=Long Ago and Far away
EXTD=
EXTT0=
EXTT1=
EXTT2=
EXTT3=
EXTT4=
EXTT5=
EXTT6=
EXTT7=
EXTT8=
PLAYORDER=
